<svg width="15" height="15" viewBox="0 0 15 15" fill="none" xmlns="http://www.w3.org/2000/svg">
<path d="M12.188 11.074C12.188 11.634 12.0247 12.1193 11.698 12.53C11.3714 12.9407 10.9794 13.146 10.522 13.146H3.85802C3.40068 13.146 3.00868 12.9407 2.68202 12.53C2.35535 12.1193 2.19202 11.634 2.19202 11.074C2.19202 10.626 2.21535 10.206 2.26202 9.814C2.30868 9.422 2.38802 9.02533 2.50002 8.624C2.61202 8.22266 2.76602 7.882 2.96202 7.602C3.15802 7.322 3.40068 7.08866 3.69002 6.902C3.97935 6.71533 4.33402 6.62666 4.75402 6.636C5.43535 7.308 6.24735 7.644 7.19002 7.644C8.13268 7.644 8.94935 7.308 9.64002 6.636C10.032 6.636 10.382 6.72466 10.69 6.902C10.998 7.07933 11.2407 7.31266 11.418 7.602C11.5954 7.89133 11.7494 8.232 11.88 8.624C12.0107 9.016 12.0947 9.41266 12.132 9.814C12.1694 10.2153 12.188 10.6353 12.188 11.074ZM10.186 4.144C10.186 4.96533 9.89668 5.67 9.31802 6.258C8.73935 6.846 8.03002 7.14 7.19002 7.14C6.35002 7.14 5.64535 6.846 5.07602 6.258C4.50668 5.67 4.21268 4.96533 4.19402 4.144C4.17535 3.32266 4.46935 2.61333 5.07602 2.016C5.68268 1.41866 6.38735 1.12466 7.19002 1.134C7.99268 1.14333 8.70202 1.43733 9.31802 2.016C9.93402 2.59466 10.2234 3.304 10.186 4.144Z" fill="#8CC63F"/>
</svg>
