<svg width="30" height="30" viewBox="0 0 30 30" fill="none" xmlns="http://www.w3.org/2000/svg">
<path d="M23.0247 2.12987C24.3647 2.12987 25.5047 2.60987 26.4447 3.56987C27.3847 4.52987 27.8547 5.65987 27.8547 6.95987V23.0399C27.8547 24.3599 27.3847 25.4899 26.4447 26.4299C25.5047 27.3699 24.3647 27.8499 23.0247 27.8699H19.9047V17.8799H23.2347L23.7147 14.0099H19.9047V11.5199C19.9047 10.8999 20.0347 10.4399 20.2947 10.1399C20.5547 9.83987 21.0647 9.67987 21.8247 9.65987L23.8647 9.62987V6.17987C23.1647 6.07987 22.1647 6.02987 20.8647 6.02987C19.3647 6.02987 18.1547 6.46987 17.2347 7.34987C16.3147 8.22987 15.8647 9.49987 15.8847 11.1599V14.0099H12.5247V17.8799H15.8847V27.8699H6.97474C5.63474 27.8699 4.49474 27.3899 3.55474 26.4299C2.61474 25.4699 2.14474 24.3399 2.14474 23.0399V6.95987C2.14474 5.63987 2.61474 4.50987 3.55474 3.56987C4.49474 2.62987 5.63474 2.14987 6.97474 2.12987H23.0247Z" fill="black"/>
</svg>
