<svg width="81" height="80" viewBox="0 0 81 80" fill="none" xmlns="http://www.w3.org/2000/svg">
<g clip-path="url(#clip0_0_350)">
<path d="M66.63 15.28H61.43V12.24H73.11C73.9633 12.24 74.67 11.96 75.23 11.4C75.79 10.84 76.07 10.1334 76.07 9.28004V5.92004C76.07 5.0667 75.79 4.36003 75.23 3.80003C74.67 3.24004 73.9633 2.96004 73.11 2.96004H60.31C59.99 2.96004 59.71 3.0667 59.47 3.28004C59.23 3.49337 59.11 3.76003 59.11 4.08003V15.28H32.71C30.31 15.28 28.0833 15.8534 26.03 17C23.9767 18.1467 22.31 19.72 21.03 21.72C19.75 23.72 19.0567 25.8934 18.95 28.24H2.47001C1.88335 28.24 1.43001 28.4267 1.11001 28.8C0.630015 29.1734 0.390015 29.68 0.390015 30.32V51.04C0.390015 51.6267 0.616681 52.12 1.07001 52.52C1.52335 52.92 1.99001 53.12 2.47001 53.12H44.07V56.48C44.07 57.4934 44.4567 58.3867 45.23 59.16C46.0033 59.9334 46.8967 60.32 47.91 60.32H49.51V75.92C49.51 76.24 49.6167 76.5067 49.83 76.72C50.0433 76.9334 50.31 77.04 50.63 77.04C50.95 77.04 51.23 76.9334 51.47 76.72C51.71 76.5067 51.83 76.24 51.83 75.92V60.32H56.63V75.92C56.63 76.24 56.75 76.5067 56.99 76.72C57.23 76.9334 57.51 77.04 57.83 77.04C58.15 77.04 58.43 76.9334 58.67 76.72C58.91 76.5067 59.03 76.24 59.03 75.92V60.32H60.55C61.6167 60.32 62.5233 59.9467 63.27 59.2C64.0167 58.4534 64.39 57.5467 64.39 56.48V53.12H64.87C65.19 53.12 65.47 53 65.71 52.76C65.95 52.52 66.07 52.24 66.07 51.92C66.07 51.6 65.95 51.3334 65.71 51.12C65.47 50.9067 65.19 50.8 64.87 50.8H46.47V46.88H78.07V50.16C78.07 50.32 78.0033 50.4667 77.87 50.6C77.7367 50.7334 77.59 50.8 77.43 50.8H70.39C70.07 50.8 69.79 50.9067 69.55 51.12C69.31 51.3334 69.19 51.6 69.19 51.92C69.19 52.24 69.31 52.52 69.55 52.76C69.79 53 70.07 53.12 70.39 53.12H77.43C78.2833 53.12 78.99 52.84 79.55 52.28C80.11 51.72 80.39 51.0134 80.39 50.16V29.04C80.39 26.5334 79.7767 24.2267 78.55 22.12C77.3233 20.0134 75.6567 18.3467 73.55 17.12C71.4433 15.8934 69.1367 15.28 66.63 15.28ZM61.43 5.28004H73.11C73.5367 5.28004 73.75 5.49337 73.75 5.92004V9.28004C73.75 9.44003 73.6967 9.5867 73.59 9.72003C73.4833 9.85337 73.3233 9.92004 73.11 9.92004H61.43V5.28004ZM4.79001 50.8L15.03 42.16L17.03 43.84C17.4033 44.2134 17.8567 44.4 18.39 44.4C18.9233 44.4 19.3767 44.2134 19.75 43.84L21.83 42.16L32.07 50.8H4.79001ZM13.19 40.64L2.71001 49.44V31.92L13.19 40.64ZM18.39 41.92L4.79001 30.56H32.07L18.39 41.92ZM62.07 56.48C62.07 56.8534 61.9233 57.2 61.63 57.52C61.3367 57.84 60.9767 58 60.55 58H47.91C47.5367 58 47.2033 57.8534 46.91 57.56C46.6167 57.2667 46.47 56.9067 46.47 56.48V53.12H62.07V56.48ZM46.47 44.48V39.2C46.47 38.8267 46.35 38.5334 46.11 38.32C45.87 38.1067 45.59 38 45.27 38C44.95 38 44.67 38.1067 44.43 38.32C44.19 38.5334 44.07 38.8267 44.07 39.2V50.8H36.47V43.36C36.47 43.04 36.35 42.76 36.11 42.52C35.87 42.28 35.59 42.16 35.27 42.16C34.95 42.16 34.6833 42.28 34.47 42.52C34.2567 42.76 34.15 43.04 34.15 43.36V49.44L23.59 40.64L34.15 31.92V37.84C34.15 38.16 34.2567 38.4267 34.47 38.64C34.6833 38.8534 34.95 38.96 35.27 38.96C35.59 38.96 35.87 38.8534 36.11 38.64C36.35 38.4267 36.47 38.16 36.47 37.84V30.32C36.47 29.68 36.23 29.1734 35.75 28.8C35.43 28.4267 34.95 28.24 34.31 28.24H21.27C21.43 26.2667 22.03 24.4667 23.07 22.84C24.11 21.2134 25.4833 19.9334 27.19 19C28.8967 18.0667 30.75 17.6 32.75 17.6C34.75 17.6 36.63 18.1067 38.39 19.12C40.15 20.1334 41.5367 21.52 42.55 23.28C43.5633 25.04 44.07 26.96 44.07 29.04V33.6C44.07 33.9734 44.19 34.2667 44.43 34.48C44.67 34.6934 44.95 34.8 45.27 34.8C45.59 34.8 45.87 34.6934 46.11 34.48C46.35 34.2667 46.47 33.9734 46.47 33.6V29.04C46.47 26.7467 45.91 24.5867 44.79 22.56C43.67 20.5334 42.1767 18.88 40.31 17.6H59.11V26.64C59.11 26.96 59.23 27.24 59.47 27.48C59.71 27.72 59.99 27.84 60.31 27.84C60.63 27.84 60.8967 27.72 61.11 27.48C61.3233 27.24 61.43 26.96 61.43 26.64V17.6H66.63C68.71 17.6 70.63 18.1067 72.39 19.12C74.15 20.1334 75.5367 21.52 76.55 23.28C77.5633 25.04 78.07 26.96 78.07 29.04V44.48H46.47Z" fill="white"/>
</g>
<defs>
<clipPath id="clip0_0_350">
<rect width="80" height="80" fill="white" transform="matrix(1 0 0 -1 0.390015 80)"/>
</clipPath>
</defs>
</svg>
