<svg width="46" height="49" viewBox="0 0 46 49" fill="none" xmlns="http://www.w3.org/2000/svg">
<g clip-path="url(#clip0_0_89)">
<path d="M45.0787 20.3582C44.7486 16.9367 43.6381 13.8153 41.7473 10.994C39.8864 8.20277 37.4854 6.0118 34.5441 4.42109C31.5427 2.80037 28.3313 1.99001 24.9098 1.99001C21.6984 1.99001 18.667 2.69532 15.8157 4.10595C13.0245 5.51658 10.6835 7.46745 8.79262 9.95855C6.84175 12.4797 5.58119 15.3309 5.01094 18.5124C4.77083 18.5724 4.59075 18.6324 4.4707 18.6924L2.08464 20.1331C1.24427 20.6433 0.704026 21.3636 0.463919 22.294C-0.0763208 24.2449 0.103759 26.4059 1.00416 28.7769C2.17468 31.9283 4.57575 35.3198 8.20736 38.9514C11.1487 41.8927 13.9399 44.0237 16.5811 45.3443C18.712 46.4548 20.7229 47.01 22.6138 47.01C23.4541 47.01 24.2045 46.905 24.8648 46.6949C25.7952 46.4548 26.5155 45.9145 27.0257 45.0741L28.4664 42.6881C28.5264 42.568 28.5864 42.388 28.6464 42.1479C32.0379 41.5176 35.0543 40.1219 37.6955 37.961C40.2766 35.8601 42.2275 33.2789 43.5481 30.2176C44.8987 27.0662 45.4089 23.7797 45.0787 20.3582ZM27.1608 41.9227L25.7201 44.3088C25.42 44.789 24.9998 45.1042 24.4596 45.2542C22.4787 45.7945 20.1902 45.4343 17.594 44.1737C14.9979 42.9132 12.2366 40.8198 9.31035 37.8935C6.38405 34.9672 4.28312 32.1909 3.00755 29.5648C1.73198 26.9386 1.36432 24.6501 1.90456 22.6992C2.05463 22.159 2.36977 21.7388 2.84998 21.4387L5.23604 19.998C5.32608 19.938 5.43113 19.923 5.55118 19.953C5.67123 19.983 5.76127 20.043 5.8213 20.1331L9.60298 25.8056C9.66301 25.8956 9.68552 26.0007 9.67051 26.1207C9.6555 26.2408 9.60298 26.3308 9.51294 26.3909L7.397 28.0116C7.00683 28.3117 6.76672 28.7019 6.67668 29.1821C6.58664 29.6623 6.66167 30.0975 6.90178 30.4877L7.03684 30.8028C8.08731 32.7237 9.45291 34.4644 11.1337 36.0251C12.6944 37.7059 14.4351 39.0715 16.356 40.1219L16.6711 40.302C17.0913 40.5421 17.534 40.6097 17.9992 40.5046C18.4644 40.3996 18.8471 40.152 19.1472 39.7618L20.7679 37.6459C20.828 37.5558 20.918 37.5033 21.0381 37.4883C21.1581 37.4733 21.2632 37.4958 21.3532 37.5558L27.0257 41.3375C27.1158 41.3975 27.1758 41.4876 27.2058 41.6076C27.2358 41.7277 27.2208 41.8327 27.1608 41.9227ZM28.4213 40.6622C28.3313 40.5121 28.1362 40.317 27.8361 40.0769L22.2086 36.2952C21.7884 36.0251 21.3232 35.9351 20.813 36.0251C20.3027 36.1152 19.8976 36.3553 19.5974 36.7455L17.9317 38.8614C17.8717 38.9514 17.7891 39.004 17.6841 39.019C17.579 39.034 17.4815 39.0115 17.3914 38.9514L17.0763 38.8164C15.1855 37.7659 13.5647 36.4753 12.2141 34.9446C10.7435 33.6541 9.45291 32.0334 8.34242 30.0825L8.20736 29.7673C8.14733 29.6773 8.12482 29.5798 8.13983 29.4747C8.15484 29.3697 8.20736 29.2871 8.2974 29.2271L10.4133 27.5614C10.8035 27.2612 11.0436 26.8561 11.1337 26.3458C11.2237 25.8356 11.1337 25.3704 10.8635 24.9502L7.08186 19.2777L6.9468 19.1426C6.76672 18.9325 6.61665 18.7975 6.4966 18.7374C7.09687 15.6161 8.38744 12.8248 10.3683 10.3637C12.3192 7.99268 14.7203 6.20688 17.5715 5.00635C20.4828 3.74579 23.5142 3.26558 26.6656 3.56571C29.817 3.86584 32.7132 4.9013 35.3544 6.67209C37.9056 8.38285 39.9315 10.5888 41.4321 13.29C42.9328 16.0813 43.6831 19.0676 43.6831 22.249C43.6831 25.2203 43.0228 28.0266 41.7022 30.6677C40.4117 33.2489 38.6259 35.4099 36.3449 37.1506C33.9738 38.9514 31.3326 40.1219 28.4213 40.6622ZM24.9098 5.72667C22.7188 5.72667 20.6254 6.14686 18.6295 6.98723C16.6336 7.8276 14.8628 9.00563 13.3171 10.5213C11.7714 12.037 10.5634 13.8003 9.69302 15.8111C9.60298 15.9912 9.60298 16.1788 9.69302 16.3739C9.78306 16.569 9.91812 16.7115 10.0982 16.8016C10.2183 16.8616 10.3233 16.8916 10.4133 16.8916C10.7135 16.8916 10.9386 16.7266 11.0886 16.3964C11.869 14.5656 12.957 12.9599 14.3526 11.5793C15.7482 10.1987 17.3614 9.13318 19.1922 8.38285C21.0231 7.63252 22.9289 7.25735 24.9098 7.25735C25.1199 7.25735 25.3 7.18232 25.45 7.03225C25.6001 6.88218 25.6751 6.7021 25.6751 6.49201C25.6751 6.28192 25.6001 6.10184 25.45 5.95177C25.3 5.8017 25.1199 5.72667 24.9098 5.72667ZM30.7624 36.0702C30.4622 36.1602 30.3122 36.3628 30.3122 36.6779C30.3122 36.9931 30.4022 37.2257 30.5823 37.3757C30.8224 37.5258 31.0775 37.5558 31.3476 37.4658C33.3585 36.5954 35.1218 35.3873 36.6375 33.8417C38.1532 32.296 39.3312 30.5252 40.1716 28.5293C41.0119 26.5334 41.4321 24.44 41.4321 22.249C41.4321 22.0389 41.3571 21.8588 41.207 21.7088C41.057 21.5587 40.8769 21.4837 40.6668 21.4837C40.4567 21.4837 40.2766 21.5587 40.1265 21.7088C39.9765 21.8588 39.9014 22.0389 39.9014 22.249C39.9014 24.2299 39.5263 26.1357 38.7759 27.9666C38.0256 29.7974 36.9601 31.4106 35.5795 32.8062C34.1989 34.2018 32.5932 35.2898 30.7624 36.0702ZM22.6588 15.496H18.1568C17.7666 15.496 17.4215 15.6386 17.1213 15.9237C16.8212 16.2088 16.6711 16.5615 16.6711 16.9817V18.5124C16.6711 18.7224 16.7386 18.895 16.8737 19.0301C17.0088 19.1651 17.1813 19.2327 17.3914 19.2327C17.6015 19.2327 17.7816 19.1651 17.9317 19.0301C18.0817 18.895 18.1568 18.7224 18.1568 18.5124V16.9817H22.6588V18.6474C22.6588 18.8275 22.5988 19.0076 22.4787 19.1877L17.2114 24.9952C17.0313 25.2353 16.9187 25.498 16.8737 25.7831C16.8287 26.0682 16.8662 26.3458 16.9863 26.6159C17.1063 26.8861 17.2864 27.1037 17.5265 27.2687C17.7666 27.4338 18.0367 27.5163 18.3369 27.5163H23.4241C23.6342 27.5163 23.8068 27.4413 23.9418 27.2913C24.0769 27.1412 24.1444 26.9611 24.1444 26.751C24.1444 26.5409 24.0769 26.3608 23.9418 26.2108C23.8068 26.0607 23.6342 25.9857 23.4241 25.9857H18.3369L23.5592 20.1781C23.9494 19.7879 24.1444 19.2777 24.1444 18.6474V16.9817C24.1444 16.5615 24.0019 16.2088 23.7167 15.9237C23.4316 15.6386 23.079 15.496 22.6588 15.496ZM30.8974 26.751C30.8974 26.9611 30.9725 27.1412 31.1225 27.2913C31.2726 27.4413 31.4527 27.5163 31.6628 27.5163C31.8729 27.5163 32.053 27.4413 32.203 27.2913C32.3531 27.1412 32.4281 26.9611 32.4281 26.751V24.5H33.1484C33.3585 24.5 33.5386 24.425 33.6887 24.2749C33.8387 24.1248 33.9138 23.9448 33.9138 23.7347C33.9138 23.5246 33.8387 23.352 33.6887 23.2169C33.5386 23.0819 33.3585 23.0144 33.1484 23.0144H32.4281V21.4837C32.4281 21.2736 32.3531 21.101 32.203 20.9659C32.053 20.8309 31.8729 20.7633 31.6628 20.7633C31.4527 20.7633 31.2726 20.8309 31.1225 20.9659C30.9725 21.101 30.8974 21.2736 30.8974 21.4837V23.0144H27.611L30.8524 16.5765C30.9425 16.3964 30.95 16.2088 30.8749 16.0137C30.7999 15.8187 30.6723 15.6761 30.4923 15.5861C30.3122 15.496 30.1246 15.481 29.9295 15.541C29.7344 15.6011 29.5919 15.7211 29.5018 15.9012L26.3054 22.3391C26.1853 22.5491 26.1253 22.7817 26.1253 23.0369C26.1253 23.292 26.1928 23.5321 26.3279 23.7572C26.463 23.9823 26.6506 24.1624 26.8907 24.2974C27.1308 24.4325 27.3709 24.5 27.611 24.5H30.8974V26.751Z" fill="white"/>
</g>
<defs>
<clipPath id="clip0_0_89">
<rect width="45.02" height="49" fill="white" transform="matrix(1 0 0 -1 0.160034 49)"/>
</clipPath>
</defs>
</svg>
