<svg width="30" height="30" viewBox="0 0 30 30" fill="none" xmlns="http://www.w3.org/2000/svg">
<path d="M6.10465 23.6699H9.97465V12.0599H6.10465V23.6699ZM10.2447 8.45987C10.2247 7.87987 10.0147 7.39987 9.61465 7.01987C9.21465 6.63987 8.70465 6.44987 8.08465 6.44987C7.46465 6.44987 6.93465 6.63987 6.49465 7.01987C6.05465 7.39987 5.83965 7.87987 5.84965 8.45987C5.85965 9.03987 6.06465 9.51987 6.46465 9.89987C6.86465 10.2799 7.38465 10.4699 8.02465 10.4699C8.68465 10.4699 9.21465 10.2799 9.61465 9.89987C10.0147 9.51987 10.2247 9.03987 10.2447 8.45987ZM20.0247 23.6699H23.8947V17.0099C23.8947 15.2899 23.4847 13.9899 22.6647 13.1099C21.8447 12.2299 20.7747 11.7899 19.4547 11.7899C17.9347 11.7899 16.7647 12.4399 15.9447 13.7399H15.9747V12.0599H12.1047C12.1447 12.7999 12.1447 16.6699 12.1047 23.6699H15.9747V17.1599C15.9747 16.7399 16.0147 16.4299 16.0947 16.2299C16.2547 15.8499 16.5047 15.5199 16.8447 15.2399C17.1847 14.9599 17.5947 14.8199 18.0747 14.8199C19.3747 14.8199 20.0247 15.6999 20.0247 17.4599V23.6699ZM27.8547 6.95987V23.0399C27.8547 24.3599 27.3847 25.4899 26.4447 26.4299C25.5047 27.3699 24.3647 27.8499 23.0247 27.8699H6.97465C5.63465 27.8699 4.49465 27.3899 3.55465 26.4299C2.61465 25.4699 2.14465 24.3399 2.14465 23.0399V6.95987C2.14465 5.63987 2.61465 4.50987 3.55465 3.56987C4.49465 2.62987 5.63465 2.14987 6.97465 2.12987H23.0247C24.3647 2.12987 25.5047 2.60987 26.4447 3.56987C27.3847 4.52987 27.8547 5.65987 27.8547 6.95987Z" fill="black"/>
</svg>
