<svg width="21" height="21" viewBox="0 0 21 21" fill="none" xmlns="http://www.w3.org/2000/svg">
<g clip-path="url(#clip0_0_83)">
<path d="M20.63 19.2L14.81 13.38C15.3833 12.6867 15.8233 11.9167 16.13 11.07C16.4367 10.2233 16.59 9.34 16.59 8.42C16.59 6.99333 16.23 5.66 15.51 4.42C14.8033 3.23333 13.8567 2.28667 12.67 1.58C11.43 0.860001 10.0967 0.5 8.67 0.5C7.24333 0.5 5.91 0.860001 4.67 1.58C3.48333 2.28667 2.53667 3.23333 1.83 4.42C1.11 5.66 0.75 6.99333 0.75 8.42C0.75 9.84667 1.11 11.18 1.83 12.42C2.53667 13.6067 3.48333 14.5533 4.67 15.26C5.91 15.98 7.24333 16.34 8.67 16.34C9.59 16.34 10.4833 16.18 11.35 15.86C12.19 15.5533 12.9567 15.12 13.65 14.56L19.45 20.38C19.53 20.46 19.6267 20.5 19.74 20.5C19.8533 20.5 19.95 20.46 20.03 20.38L20.63 19.78C20.71 19.7 20.75 19.6033 20.75 19.49C20.75 19.3767 20.71 19.28 20.63 19.2ZM8.67 14.66C7.53667 14.66 6.48333 14.3733 5.51 13.8C4.57667 13.2533 3.83 12.5067 3.27 11.56C2.69667 10.6 2.41 9.55333 2.41 8.42C2.41 7.28667 2.69667 6.23333 3.27 5.26C3.83 4.32667 4.57667 3.58 5.51 3.02C6.48333 2.44667 7.53667 2.16 8.67 2.16C9.80333 2.16 10.85 2.44667 11.81 3.02C12.7567 3.56667 13.5033 4.31333 14.05 5.26C14.6233 6.23333 14.91 7.28667 14.91 8.42C14.91 9.55333 14.6233 10.6067 14.05 11.58C13.5033 12.5133 12.7567 13.26 11.81 13.82C10.85 14.38 9.80333 14.66 8.67 14.66Z" fill="white"/>
</g>
<defs>
<clipPath id="clip0_0_83">
<rect width="20" height="20" fill="white" transform="matrix(1 0 0 -1 0.75 20.5)"/>
</clipPath>
</defs>
</svg>
