<svg width="131" height="21" viewBox="0 0 131 21" fill="none" xmlns="http://www.w3.org/2000/svg">
<path d="M16.2427 0C17.2851 0 18.1719 0.372961 18.9032 1.11888C19.6344 1.8648 20 2.74281 20 3.75291V16.2471C20 17.2727 19.6344 18.1507 18.9032 18.8811C18.1719 19.6115 17.2851 19.9845 16.2427 20H13.8156V12.2378H16.4061L16.7795 9.23077H13.8156V7.29604C13.8156 6.8143 13.9168 6.45688 14.119 6.22378C14.3213 5.99068 14.718 5.86636 15.3092 5.85082L16.8961 5.82751V3.14685C16.3516 3.06915 15.5737 3.0303 14.5624 3.0303C13.3956 3.0303 12.4543 3.37218 11.7386 4.05594C11.0229 4.73971 10.6729 5.7265 10.6884 7.01632V9.23077H8.07468V12.2378H10.6884V20H3.75729C2.7149 20 1.82808 19.627 1.09685 18.8811C0.365616 18.1352 0 17.2572 0 16.2471V3.75291C0 2.72727 0.365616 1.84926 1.09685 1.11888C1.82808 0.3885 2.7149 0.0155411 3.75729 0H16.2427Z" fill="black"/>
<path d="M59 2.64057C58.3546 3.64881 57.5696 4.51701 56.6451 5.24518V5.88933C56.6451 7.25232 56.4619 8.60597 56.0956 9.95029C55.7292 11.2946 55.171 12.5922 54.4209 13.8432C53.6708 15.0942 52.7725 16.1864 51.7258 17.12C50.6792 18.0535 49.4232 18.819 47.9579 19.4165C46.4926 20.014 44.9139 20.2941 43.2218 20.2567C40.5878 20.2567 38.1805 19.5005 36 17.9882C36.3314 18.0255 36.7065 18.0442 37.1251 18.0442C39.3231 18.0442 41.2768 17.3254 42.9863 15.8877C41.9571 15.869 41.0413 15.5329 40.2389 14.8794C39.4365 14.226 38.8783 13.3951 38.5643 12.3869C38.8957 12.4429 39.1923 12.4709 39.4539 12.4709C39.8726 12.4709 40.2912 12.4149 40.7099 12.3028C39.6109 12.0601 38.7038 11.4813 37.9886 10.5664C37.2734 9.65155 36.9158 8.57797 36.9158 7.34568V7.28966C37.5787 7.68176 38.2939 7.89647 39.0614 7.93382C38.416 7.46704 37.9014 6.86957 37.5176 6.14139C37.1339 5.41322 36.942 4.60103 36.942 3.70482C36.942 2.80861 37.16 1.96841 37.5961 1.18423C38.7823 2.73392 40.2127 3.97555 41.8874 4.9091C43.562 5.84266 45.3762 6.35611 47.3299 6.44947C47.2427 6.05737 47.1991 5.67462 47.1991 5.3012C47.1991 3.90087 47.6614 2.71525 48.5859 1.74436C49.5104 0.773464 50.6181 0.278681 51.909 0.26001C53.2871 0.26001 54.4384 0.792135 55.3629 1.85638C56.427 1.63233 57.43 1.22157 58.372 0.624096C58.0057 1.81904 57.3079 2.7526 56.2787 3.42475C57.1858 3.31273 58.0929 3.05133 59 2.64057Z" fill="black"/>
<path d="M78.0805 16.9966H81.091V7.97563H78.0805V16.9966ZM81.301 5.17842C81.2855 4.72776 81.1221 4.3548 80.811 4.05954C80.4998 3.76428 80.1031 3.61665 79.6208 3.61665C79.1385 3.61665 78.7262 3.76428 78.3839 4.05954C78.0416 4.3548 77.8744 4.72776 77.8821 5.17842C77.8899 5.62909 78.0494 6.00205 78.3606 6.29731C78.6717 6.59257 79.0762 6.7402 79.5741 6.7402C80.0875 6.7402 80.4998 6.59257 80.811 6.29731C81.1221 6.00205 81.2855 5.62909 81.301 5.17842ZM88.909 16.9966H91.9195V11.8218C91.9195 10.4853 91.6005 9.47524 90.9627 8.79148C90.3248 8.10772 89.4924 7.76584 88.4656 7.76584C87.2832 7.76584 86.373 8.27089 85.7351 9.28099H85.7585V7.97563H82.748C82.7791 8.55061 82.7791 11.5576 82.748 16.9966H85.7585V11.9383C85.7585 11.612 85.7896 11.3711 85.8518 11.2157C85.9763 10.9205 86.1708 10.6641 86.4352 10.4465C86.6997 10.2289 87.0187 10.1202 87.3921 10.1202C88.4033 10.1202 88.909 10.8039 88.909 12.1714V16.9966ZM95 4.01292V16.5071C95 17.5327 94.6344 18.4107 93.9032 19.1411C93.1719 19.8715 92.2851 20.2445 91.2427 20.26H78.7573C77.7149 20.26 76.8281 19.887 76.0968 19.1411C75.3656 18.3952 75 17.5172 75 16.5071V4.01292C75 2.98728 75.3656 2.10927 76.0968 1.37889C76.8281 0.64851 77.7149 0.275549 78.7573 0.26001H91.2427C92.2851 0.26001 93.1719 0.632971 93.9032 1.37889C94.6344 2.12481 95 3.00282 95 4.01292Z" fill="black"/>
<path fill-rule="evenodd" clip-rule="evenodd" d="M116.877 0.32001C117.944 0.271119 118.284 0.26001 121 0.26001C123.717 0.26001 124.056 0.271673 125.122 0.32001C126.187 0.368346 126.914 0.537792 127.551 0.78501C128.218 1.0362 128.822 1.42977 129.322 1.93835C129.83 2.43783 130.224 3.04225 130.475 3.70946C130.722 4.34556 130.891 5.07279 130.94 6.13723C130.989 7.2039 131 7.5439 131 10.26C131 12.9761 130.988 13.3161 130.94 14.3828C130.892 15.4472 130.722 16.1745 130.475 16.8106C130.219 17.4678 129.877 18.0261 129.322 18.5816C128.822 19.0903 128.218 19.4839 127.551 19.735C126.914 19.9822 126.187 20.1511 125.123 20.2C124.056 20.2489 123.716 20.26 121 20.26C118.284 20.26 117.944 20.2484 116.877 20.2C115.813 20.1516 115.086 19.9822 114.449 19.735C113.792 19.4795 113.234 19.1372 112.678 18.5816C112.17 18.0822 111.776 17.4777 111.525 16.8106C111.278 16.1745 111.109 15.4472 111.06 14.3828C111.011 13.3161 111 12.9766 111 10.26C111 7.54335 111.012 7.2039 111.06 6.13779C111.108 5.07279 111.278 4.34556 111.525 3.70946C111.776 3.04229 112.17 2.4379 112.678 1.93835C113.178 1.42968 113.782 1.03608 114.449 0.78501C115.086 0.537792 115.813 0.368901 116.877 0.32001ZM125.041 2.12001C123.987 2.07223 123.67 2.06167 121 2.06167C118.33 2.06167 118.013 2.07223 116.959 2.12001C115.984 2.16446 115.454 2.32723 115.102 2.46446C114.636 2.64556 114.302 2.86223 113.952 3.21223C113.603 3.56223 113.386 3.89556 113.204 4.36223C113.067 4.71446 112.904 5.2439 112.86 6.2189C112.812 7.27335 112.802 7.59001 112.802 10.26C112.802 12.93 112.812 13.2466 112.86 14.3011C112.904 15.2761 113.067 15.8056 113.204 16.1578C113.365 16.5922 113.62 16.9851 113.952 17.3078C114.275 17.6398 114.668 17.8954 115.102 18.0556C115.454 18.1928 115.984 18.3556 116.959 18.4C118.013 18.4478 118.329 18.4584 121 18.4584C123.671 18.4584 123.987 18.4478 125.041 18.4C126.016 18.3556 126.546 18.1928 126.898 18.0556C127.364 17.8745 127.698 17.6578 128.048 17.3078C128.38 16.9852 128.635 16.5922 128.796 16.1578C128.933 15.8056 129.096 15.2761 129.14 14.3011C129.188 13.2466 129.198 12.93 129.198 10.26C129.198 7.59001 129.188 7.27335 129.14 6.2189C129.096 5.2439 128.933 4.71446 128.796 4.36223C128.614 3.89556 128.398 3.56223 128.048 3.21223C127.698 2.86279 127.364 2.64556 126.898 2.46446C126.546 2.32723 126.016 2.16446 125.041 2.12001ZM119.723 13.3426C120.128 13.5104 120.562 13.5966 121 13.5966C121.885 13.5966 122.734 13.2451 123.359 12.6194C123.985 11.9936 124.337 11.1449 124.337 10.26C124.337 9.3751 123.985 8.52637 123.359 7.90063C122.734 7.27488 121.885 6.92334 121 6.92334C120.562 6.92334 120.128 7.00965 119.723 7.17733C119.318 7.34501 118.95 7.59078 118.641 7.90063C118.331 8.21046 118.085 8.57828 117.917 8.9831C117.75 9.38792 117.663 9.82183 117.663 10.26C117.663 10.6982 117.75 11.1321 117.917 11.5369C118.085 11.9417 118.331 12.3096 118.641 12.6194C118.95 12.9292 119.318 13.175 119.723 13.3426ZM117.366 6.62547C118.329 5.66154 119.637 5.12 121 5.12C122.363 5.12 123.671 5.66154 124.635 6.62547C125.598 7.58941 126.14 8.89683 126.14 10.26C126.14 11.6232 125.598 12.9306 124.635 13.8946C123.671 14.8585 122.363 15.4 121 15.4C119.637 15.4 118.329 14.8585 117.366 13.8946C116.402 12.9306 115.86 11.6232 115.86 10.26C115.86 8.89683 116.402 7.58941 117.366 6.62547ZM127.28 5.88581C127.508 5.65795 127.636 5.34891 127.636 5.02667C127.636 4.70443 127.508 4.39539 127.28 4.16754C127.052 3.93968 126.743 3.81167 126.421 3.81167C126.098 3.81167 125.789 3.93968 125.561 4.16754C125.334 4.39539 125.206 4.70443 125.206 5.02667C125.206 5.34891 125.334 5.65795 125.561 5.88581C125.789 6.11366 126.098 6.24167 126.421 6.24167C126.743 6.24167 127.052 6.11366 127.28 5.88581Z" fill="black"/>
</svg>
