<svg width="30" height="30" viewBox="0 0 30 30" fill="none" xmlns="http://www.w3.org/2000/svg">
<path d="M27.4499 6.83985C26.7099 7.91985 25.8099 8.84985 24.7499 9.62985V10.3198C24.7499 11.7798 24.5399 13.2298 24.1199 14.6698C23.6999 16.1098 23.0599 17.4998 22.1999 18.8398C21.3399 20.1798 20.3099 21.3498 19.1099 22.3498C17.9099 23.3498 16.4699 24.1698 14.7899 24.8098C13.1099 25.4498 11.2999 25.7498 9.35986 25.7098C6.33986 25.7098 3.57986 24.8998 1.07986 23.2798C1.45986 23.3198 1.88986 23.3398 2.36986 23.3398C4.88986 23.3398 7.12986 22.5698 9.08986 21.0298C7.90986 21.0098 6.85986 20.6498 5.93986 19.9498C5.01986 19.2498 4.37986 18.3598 4.01986 17.2798C4.39986 17.3398 4.73986 17.3698 5.03986 17.3698C5.51986 17.3698 5.99986 17.3098 6.47986 17.1898C5.21986 16.9298 4.17986 16.3098 3.35986 15.3298C2.53986 14.3498 2.12986 13.1998 2.12986 11.8798V11.8198C2.88986 12.2398 3.70986 12.4698 4.58986 12.5098C3.84986 12.0098 3.25986 11.3698 2.81986 10.5898C2.37986 9.80985 2.15986 8.93985 2.15986 7.97985C2.15986 7.01985 2.40986 6.11985 2.90986 5.27985C4.26986 6.93985 5.90986 8.26985 7.82986 9.26985C9.74986 10.2698 11.8299 10.8198 14.0699 10.9198C13.9699 10.4998 13.9199 10.0898 13.9199 9.68985C13.9199 8.18985 14.4499 6.91985 15.5099 5.87985C16.5699 4.83985 17.8399 4.30985 19.3199 4.28985C20.8999 4.28985 22.2199 4.85985 23.2799 5.99985C24.4999 5.75985 25.6499 5.31985 26.7299 4.67985C26.3099 5.95985 25.5099 6.95985 24.3299 7.67985C25.3699 7.55985 26.4099 7.27985 27.4499 6.83985Z" fill="black"/>
</svg>
