<svg width="30" height="30" viewBox="0 0 30 30" fill="none" xmlns="http://www.w3.org/2000/svg">
<g clip-path="url(#clip0_0_434)">
<path d="M11.91 18.8698L20.01 14.6998L11.91 10.4698V18.8698ZM15 4.43982C16.88 4.43982 18.69 4.46981 20.43 4.52982C22.17 4.58982 23.45 4.63981 24.27 4.67982L25.5 4.73981L25.77 4.76982C25.95 4.78981 26.08 4.80981 26.16 4.82981C26.24 4.84982 26.37 4.86982 26.55 4.88981C26.73 4.90981 26.89 4.95981 27.03 5.03981C27.17 5.11982 27.33 5.18982 27.51 5.24981C27.69 5.30981 27.86 5.41982 28.02 5.57981C28.18 5.73981 28.34 5.88981 28.5 6.02982C28.58 6.08982 28.67 6.18982 28.77 6.32981C28.87 6.46981 29.03 6.79981 29.25 7.31981C29.47 7.83982 29.62 8.39981 29.7 8.99981C29.78 9.71982 29.85 10.4798 29.91 11.2798C29.97 12.0798 30 12.7198 30 13.1998V16.1398C30.02 17.7598 29.92 19.3798 29.7 20.9998C29.62 21.5998 29.48 22.1498 29.28 22.6498C29.08 23.1498 28.9 23.4998 28.74 23.6998L28.5 23.9698C28.36 24.1298 28.2 24.2798 28.02 24.4198C27.84 24.5598 27.67 24.6598 27.51 24.7198C27.35 24.7798 27.19 24.8498 27.03 24.9298C26.87 25.0098 26.71 25.0598 26.55 25.0798L25.5 25.2298C22.7 25.4498 19.2 25.5598 15 25.5598L8.97 25.4398C7.25 25.3998 6.14 25.3598 5.64 25.3198L4.2 25.1698C3.8 25.1098 3.5 25.0598 3.3 25.0198C3.1 24.9798 2.81 24.8598 2.43 24.6598C2.05 24.4598 1.74 24.2298 1.5 23.9698C1.42 23.9098 1.33 23.8098 1.23 23.6698C1.13 23.5298 0.969998 23.1998 0.749998 22.6798C0.529998 22.1598 0.379998 21.5998 0.299998 20.9998C0.219998 20.2798 0.149998 19.5198 0.0899976 18.7198C0.0299976 17.9198 -2.44123e-06 17.2798 -2.44123e-06 16.7998V13.8598C-0.0200024 12.2398 0.0799975 10.6198 0.299998 8.99981C0.379998 8.37981 0.519998 7.82981 0.719998 7.34982C0.919998 6.86981 1.1 6.51982 1.26 6.29981L1.5 6.02982C1.66 5.84982 1.82 5.69982 1.98 5.57981C2.14 5.45981 2.31 5.34982 2.49 5.24981C2.67 5.14981 2.83 5.07981 2.97 5.03981L3.45 4.88981C3.63 4.82981 3.76 4.80981 3.84 4.82981C3.92 4.84982 4.05 4.82981 4.23 4.76982C4.41 4.70981 4.5 4.69982 4.5 4.73981C7.3 4.53981 10.8 4.43982 15 4.43982Z" fill="black"/>
</g>
<defs>
<clipPath id="clip0_0_434">
<rect width="30" height="30" fill="white" transform="matrix(1 0 0 -1 0 29.9998)"/>
</clipPath>
</defs>
</svg>
